<?xml version="1.0" encoding="UTF-8" standalone="no"?><svg xmlns="http://www.w3.org/2000/svg" xmlns:xlink="http://www.w3.org/1999/xlink" contentScriptType="application/ecmascript" contentStyleType="text/css" height="409px" preserveAspectRatio="none" style="width:782px;height:409px;" version="1.1" viewBox="0 0 782 409" width="782px" zoomAndPan="magnify"><defs><filter height="300%" id="f1cu1jwzf7dk5h" width="300%" x="-1" y="-1"><feGaussianBlur result="blurOut" stdDeviation="2.0"/><feColorMatrix in="blurOut" result="blurOut2" type="matrix" values="0 0 0 0 0 0 0 0 0 0 0 0 0 0 0 0 0 0 .4 0"/><feOffset dx="4.0" dy="4.0" in="blurOut2" result="blurOut3"/><feBlend in="SourceGraphic" in2="blurOut3" mode="normal"/></filter></defs><g><rect fill="#FFFFFF" filter="url(#f1cu1jwzf7dk5h)" height="217.9297" style="stroke:#A80036;stroke-width:1.0;" width="10" x="40.5" y="98.2969"/><rect fill="#FFFFFF" filter="url(#f1cu1jwzf7dk5h)" height="35.1328" style="stroke:#A80036;stroke-width:1.0;" width="10" x="45.5" y="265.0938"/><rect fill="#FFFFFF" filter="url(#f1cu1jwzf7dk5h)" height="14" style="stroke:#A80036;stroke-width:1.0;" width="10" x="481" y="302.2266"/><rect fill="#FFFFFF" filter="url(#f1cu1jwzf7dk5h)" height="14" style="stroke:#A80036;stroke-width:1.0;" width="10" x="603.5" y="302.2266"/><rect fill="#FFFFFF" filter="url(#f1cu1jwzf7dk5h)" height="201.9297" style="stroke:#A80036;stroke-width:1.0;" width="10" x="718.5" y="98.2969"/><line style="stroke:#A80036;stroke-width:1.0;stroke-dasharray:5.0,5.0;" x1="45" x2="45" y1="88.2969" y2="325.2266"/><line style="stroke:#A80036;stroke-width:1.0;stroke-dasharray:5.0,5.0;" x1="370.5" x2="370.5" y1="88.2969" y2="325.2266"/><line style="stroke:#A80036;stroke-width:1.0;stroke-dasharray:5.0,5.0;" x1="485.5" x2="485.5" y1="88.2969" y2="325.2266"/><line style="stroke:#A80036;stroke-width:1.0;stroke-dasharray:5.0,5.0;" x1="608.5" x2="608.5" y1="88.2969" y2="325.2266"/><line style="stroke:#A80036;stroke-width:1.0;stroke-dasharray:5.0,5.0;" x1="723.5" x2="723.5" y1="88.2969" y2="325.2266"/><text fill="#000000" font-family="sans-serif" font-size="14" lengthAdjust="spacing" textLength="75" x="5" y="84.9951">Cargofiller</text><ellipse cx="45.5" cy="15" fill="#FEFECE" filter="url(#f1cu1jwzf7dk5h)" rx="8" ry="8" style="stroke:#A80036;stroke-width:2.0;"/><path d="M45.5,23 L45.5,50 M32.5,31 L58.5,31 M45.5,50 L32.5,65 M45.5,50 L58.5,65 " fill="none" filter="url(#f1cu1jwzf7dk5h)" style="stroke:#A80036;stroke-width:2.0;"/><text fill="#000000" font-family="sans-serif" font-size="14" lengthAdjust="spacing" textLength="75" x="5" y="337.2217">Cargofiller</text><ellipse cx="45.5" cy="350.5234" fill="#FEFECE" filter="url(#f1cu1jwzf7dk5h)" rx="8" ry="8" style="stroke:#A80036;stroke-width:2.0;"/><path d="M45.5,358.5234 L45.5,385.5234 M32.5,366.5234 L58.5,366.5234 M45.5,385.5234 L32.5,400.5234 M45.5,385.5234 L58.5,400.5234 " fill="none" filter="url(#f1cu1jwzf7dk5h)" style="stroke:#A80036;stroke-width:2.0;"/><rect fill="#FEFECE" filter="url(#f1cu1jwzf7dk5h)" height="30.2969" style="stroke:#A80036;stroke-width:1.5;" width="94" x="321.5" y="53"/><text fill="#000000" font-family="sans-serif" font-size="14" lengthAdjust="spacing" textLength="80" x="328.5" y="72.9951">Cargostore</text><rect fill="#FEFECE" filter="url(#f1cu1jwzf7dk5h)" height="30.2969" style="stroke:#A80036;stroke-width:1.5;" width="94" x="321.5" y="324.2266"/><text fill="#000000" font-family="sans-serif" font-size="14" lengthAdjust="spacing" textLength="80" x="328.5" y="344.2217">Cargostore</text><rect fill="#FEFECE" filter="url(#f1cu1jwzf7dk5h)" height="30.2969" style="stroke:#A80036;stroke-width:1.5;" width="109" x="429.5" y="53"/><text fill="#000000" font-family="sans-serif" font-size="14" lengthAdjust="spacing" textLength="95" x="436.5" y="72.9951">Transporter1</text><rect fill="#FEFECE" filter="url(#f1cu1jwzf7dk5h)" height="30.2969" style="stroke:#A80036;stroke-width:1.5;" width="109" x="429.5" y="324.2266"/><text fill="#000000" font-family="sans-serif" font-size="14" lengthAdjust="spacing" textLength="95" x="436.5" y="344.2217">Transporter1</text><rect fill="#FEFECE" filter="url(#f1cu1jwzf7dk5h)" height="30.2969" style="stroke:#A80036;stroke-width:1.5;" width="108" x="552.5" y="53"/><text fill="#000000" font-family="sans-serif" font-size="14" lengthAdjust="spacing" textLength="94" x="559.5" y="72.9951">Transporter2</text><rect fill="#FEFECE" filter="url(#f1cu1jwzf7dk5h)" height="30.2969" style="stroke:#A80036;stroke-width:1.5;" width="108" x="552.5" y="324.2266"/><text fill="#000000" font-family="sans-serif" font-size="14" lengthAdjust="spacing" textLength="94" x="559.5" y="344.2217">Transporter2</text><rect fill="#FEFECE" filter="url(#f1cu1jwzf7dk5h)" height="30.2969" style="stroke:#A80036;stroke-width:1.5;" width="94" x="674.5" y="53"/><text fill="#000000" font-family="sans-serif" font-size="14" lengthAdjust="spacing" textLength="80" x="681.5" y="72.9951">Cargostore</text><rect fill="#FEFECE" filter="url(#f1cu1jwzf7dk5h)" height="30.2969" style="stroke:#A80036;stroke-width:1.5;" width="94" x="674.5" y="324.2266"/><text fill="#000000" font-family="sans-serif" font-size="14" lengthAdjust="spacing" textLength="80" x="681.5" y="344.2217">Cargostore</text><rect fill="#FFFFFF" filter="url(#f1cu1jwzf7dk5h)" height="217.9297" style="stroke:#A80036;stroke-width:1.0;" width="10" x="40.5" y="98.2969"/><rect fill="#FFFFFF" filter="url(#f1cu1jwzf7dk5h)" height="35.1328" style="stroke:#A80036;stroke-width:1.0;" width="10" x="45.5" y="265.0938"/><rect fill="#FFFFFF" filter="url(#f1cu1jwzf7dk5h)" height="14" style="stroke:#A80036;stroke-width:1.0;" width="10" x="481" y="302.2266"/><rect fill="#FFFFFF" filter="url(#f1cu1jwzf7dk5h)" height="14" style="stroke:#A80036;stroke-width:1.0;" width="10" x="603.5" y="302.2266"/><rect fill="#FFFFFF" filter="url(#f1cu1jwzf7dk5h)" height="201.9297" style="stroke:#A80036;stroke-width:1.0;" width="10" x="718.5" y="98.2969"/><polygon fill="#A80036" points="358.5,115.4297,368.5,119.4297,358.5,123.4297,362.5,119.4297" style="stroke:#A80036;stroke-width:1.0;"/><line style="stroke:#A80036;stroke-width:1.0;" x1="50.5" x2="364.5" y1="119.4297" y2="119.4297"/><text fill="#000000" font-family="sans-serif" font-size="13" lengthAdjust="spacing" textLength="274" x="57.5" y="114.3638">Order cargo by highest priority downwards</text><polygon fill="#A80036" points="61.5,144.5625,51.5,148.5625,61.5,152.5625,57.5,148.5625" style="stroke:#A80036;stroke-width:1.0;"/><line style="stroke:#A80036;stroke-width:1.0;stroke-dasharray:2.0,2.0;" x1="55.5" x2="369.5" y1="148.5625" y2="148.5625"/><text fill="#000000" font-family="sans-serif" font-size="13" lengthAdjust="spacing" textLength="107" x="67.5" y="143.4966">All caro is orderd</text><polygon fill="#A80036" points="474,173.6953,484,177.6953,474,181.6953,478,177.6953" style="stroke:#A80036;stroke-width:1.0;"/><line style="stroke:#A80036;stroke-width:1.0;" x1="50.5" x2="480" y1="177.6953" y2="177.6953"/><text fill="#000000" font-family="sans-serif" font-size="13" lengthAdjust="spacing" textLength="317" x="57.5" y="172.6294">fill until all cargo space is gone (highest prio. first)</text><polygon fill="#A80036" points="61.5,202.8281,51.5,206.8281,61.5,210.8281,57.5,206.8281" style="stroke:#A80036;stroke-width:1.0;"/><line style="stroke:#A80036;stroke-width:1.0;stroke-dasharray:2.0,2.0;" x1="55.5" x2="485" y1="206.8281" y2="206.8281"/><text fill="#000000" font-family="sans-serif" font-size="13" lengthAdjust="spacing" textLength="83" x="67.5" y="201.7622">no space left</text><polygon fill="#A80036" points="596.5,231.9609,606.5,235.9609,596.5,239.9609,600.5,235.9609" style="stroke:#A80036;stroke-width:1.0;"/><line style="stroke:#A80036;stroke-width:1.0;" x1="50.5" x2="602.5" y1="235.9609" y2="235.9609"/><text fill="#000000" font-family="sans-serif" font-size="13" lengthAdjust="spacing" textLength="317" x="57.5" y="230.895">fill until all cargo space is gone (highest prio. first)</text><polygon fill="#A80036" points="66.5,261.0938,56.5,265.0938,66.5,269.0938,62.5,265.0938" style="stroke:#A80036;stroke-width:1.0;"/><line style="stroke:#A80036;stroke-width:1.0;stroke-dasharray:2.0,2.0;" x1="60.5" x2="607.5" y1="265.0938" y2="265.0938"/><text fill="#000000" font-family="sans-serif" font-size="13" lengthAdjust="spacing" textLength="83" x="72.5" y="260.0278">no space left</text><line style="stroke:#A80036;stroke-width:1.0;stroke-dasharray:2.0,2.0;" x1="60.5" x2="102.5" y1="294.2266" y2="294.2266"/><line style="stroke:#A80036;stroke-width:1.0;stroke-dasharray:2.0,2.0;" x1="102.5" x2="102.5" y1="294.2266" y2="307.2266"/><line style="stroke:#A80036;stroke-width:1.0;stroke-dasharray:2.0,2.0;" x1="61.5" x2="102.5" y1="307.2266" y2="307.2266"/><polygon fill="#A80036" points="71.5,303.2266,61.5,307.2266,71.5,311.2266,67.5,307.2266" style="stroke:#A80036;stroke-width:1.0;"/><text fill="#000000" font-family="sans-serif" font-size="13" lengthAdjust="spacing" textLength="296" x="67.5" y="289.1606">Transporter1 and Transporter2 are good to go</text><!--MD5=[9ad415c38a388315276cee5426d70cba]
@startuml
actor Cargofiller
participant Cargostore as C1
participant Transporter1 as T1
participant Transporter2 as T2

activate Cargofiller
activate Cargostore

Cargofiller -> C1: Order cargo by highest priority downwards
C1 - -> Cargofiller: All caro is orderd
Cargofiller -> T1: fill until all cargo space is gone (highest prio. first)
T1 - -> Cargofiller: no space left
Cargofiller -> T2: fill until all cargo space is gone (highest prio. first)
T2 - -> Cargofiller: no space left

activate Cargofiller
Cargofiller - -> Cargofiller: Transporter1 and Transporter2 are good to go

deactivate Cargostore
deactivate Cargofiller

activate T1
activate T2
@enduml

PlantUML version 1.2021.5beta3(Unknown compile time)
(GPL source distribution)
Java Runtime: Java(TM) SE Runtime Environment
JVM: Java HotSpot(TM) 64-Bit Server VM
Default Encoding: UTF-8
Language: en
Country: US
--></g></svg>